<mxfile host="app.diagrams.net" modified="2024-01-22T10:02:49.978Z" agent="Mozilla/5.0 (Windows NT 10.0; Win64; x64; rv:121.0) Gecko/20100101 Firefox/121.0" etag="mRB1BdPqKYClqW_5Fa8R" version="22.1.20" type="github">
  <diagram name="Page-1" id="HyB89YEGMgdqJpWn22gh">
    <mxGraphModel dx="1434" dy="754" grid="1" gridSize="10" guides="1" tooltips="1" connect="1" arrows="1" fold="1" page="1" pageScale="1" pageWidth="850" pageHeight="1100" math="0" shadow="0">
      <root>
        <mxCell id="0" />
        <mxCell id="1" parent="0" />
        <mxCell id="dvCwRdVUFwLJAt1pq-4H-13" value="" style="endArrow=none;dashed=1;html=1;dashPattern=1 3;strokeWidth=2;rounded=0;" parent="1" edge="1">
          <mxGeometry width="50" height="50" relative="1" as="geometry">
            <mxPoint x="20" y="60" as="sourcePoint" />
            <mxPoint x="70" y="10" as="targetPoint" />
          </mxGeometry>
        </mxCell>
        <mxCell id="dvCwRdVUFwLJAt1pq-4H-14" value="&lt;font style=&quot;font-size: 18px;&quot;&gt;* dotted line = possible sub-states&lt;/font&gt;" style="text;html=1;align=center;verticalAlign=middle;resizable=0;points=[];autosize=1;strokeColor=none;fillColor=none;" parent="1" vertex="1">
          <mxGeometry x="80" y="20" width="290" height="40" as="geometry" />
        </mxCell>
        <mxCell id="zVjeA3QN7Vq7NyugFrP3-4" value="" style="endArrow=none;html=1;rounded=0;strokeWidth=2;" parent="1" edge="1">
          <mxGeometry width="50" height="50" relative="1" as="geometry">
            <mxPoint x="40" y="440" as="sourcePoint" />
            <mxPoint x="40" y="200" as="targetPoint" />
          </mxGeometry>
        </mxCell>
        <mxCell id="zVjeA3QN7Vq7NyugFrP3-5" value="" style="endArrow=none;html=1;rounded=0;fontStyle=0;strokeWidth=2;" parent="1" edge="1">
          <mxGeometry width="50" height="50" relative="1" as="geometry">
            <mxPoint x="40" y="440" as="sourcePoint" />
            <mxPoint x="160" y="440" as="targetPoint" />
          </mxGeometry>
        </mxCell>
        <mxCell id="zVjeA3QN7Vq7NyugFrP3-6" value="" style="endArrow=none;html=1;rounded=0;strokeWidth=2;" parent="1" edge="1">
          <mxGeometry width="50" height="50" relative="1" as="geometry">
            <mxPoint x="160" y="440" as="sourcePoint" />
            <mxPoint x="160" y="200" as="targetPoint" />
          </mxGeometry>
        </mxCell>
        <mxCell id="zVjeA3QN7Vq7NyugFrP3-7" value="" style="endArrow=none;html=1;rounded=0;" parent="1" edge="1">
          <mxGeometry width="50" height="50" relative="1" as="geometry">
            <mxPoint x="40" y="360" as="sourcePoint" />
            <mxPoint x="160" y="360" as="targetPoint" />
          </mxGeometry>
        </mxCell>
        <mxCell id="zVjeA3QN7Vq7NyugFrP3-8" value="" style="endArrow=none;html=1;rounded=0;" parent="1" edge="1">
          <mxGeometry width="50" height="50" relative="1" as="geometry">
            <mxPoint x="40" y="280" as="sourcePoint" />
            <mxPoint x="160" y="280" as="targetPoint" />
          </mxGeometry>
        </mxCell>
        <mxCell id="zVjeA3QN7Vq7NyugFrP3-9" value="&lt;u&gt;&lt;font style=&quot;font-size: 18px;&quot;&gt;Example&lt;br&gt;State Stack&lt;/font&gt;&lt;/u&gt;" style="text;html=1;align=center;verticalAlign=middle;resizable=0;points=[];autosize=1;strokeColor=none;fillColor=none;" parent="1" vertex="1">
          <mxGeometry x="40" y="137.5" width="120" height="60" as="geometry" />
        </mxCell>
        <mxCell id="zVjeA3QN7Vq7NyugFrP3-10" value="" style="endArrow=none;html=1;rounded=0;strokeWidth=2;" parent="1" edge="1">
          <mxGeometry width="50" height="50" relative="1" as="geometry">
            <mxPoint x="160" y="200" as="sourcePoint" />
            <mxPoint x="40" y="200" as="targetPoint" />
          </mxGeometry>
        </mxCell>
        <mxCell id="zVjeA3QN7Vq7NyugFrP3-11" value="" style="endArrow=classic;html=1;rounded=0;" parent="1" edge="1">
          <mxGeometry width="50" height="50" relative="1" as="geometry">
            <mxPoint x="100" y="380" as="sourcePoint" />
            <mxPoint x="100" y="340" as="targetPoint" />
          </mxGeometry>
        </mxCell>
        <mxCell id="zVjeA3QN7Vq7NyugFrP3-12" value="" style="endArrow=classic;html=1;rounded=0;" parent="1" edge="1">
          <mxGeometry width="50" height="50" relative="1" as="geometry">
            <mxPoint x="99.83" y="300" as="sourcePoint" />
            <mxPoint x="99.83" y="260" as="targetPoint" />
          </mxGeometry>
        </mxCell>
        <mxCell id="zVjeA3QN7Vq7NyugFrP3-13" value="Grounded&lt;br&gt;(Idle)" style="text;html=1;align=center;verticalAlign=middle;resizable=0;points=[];autosize=1;strokeColor=none;fillColor=none;" parent="1" vertex="1">
          <mxGeometry x="60" y="380" width="80" height="40" as="geometry" />
        </mxCell>
        <mxCell id="zVjeA3QN7Vq7NyugFrP3-14" value="Crouch&lt;br&gt;(Idle)" style="text;html=1;align=center;verticalAlign=middle;resizable=0;points=[];autosize=1;strokeColor=none;fillColor=none;" parent="1" vertex="1">
          <mxGeometry x="70" y="295" width="60" height="40" as="geometry" />
        </mxCell>
        <mxCell id="zVjeA3QN7Vq7NyugFrP3-16" value="Attack&lt;br&gt;(light)" style="text;html=1;align=center;verticalAlign=middle;resizable=0;points=[];autosize=1;strokeColor=none;fillColor=none;" parent="1" vertex="1">
          <mxGeometry x="70" y="215" width="60" height="40" as="geometry" />
        </mxCell>
        <mxCell id="zVjeA3QN7Vq7NyugFrP3-18" value="" style="curved=1;endArrow=classic;html=1;rounded=0;" parent="1" edge="1">
          <mxGeometry width="50" height="50" relative="1" as="geometry">
            <mxPoint x="140" y="240" as="sourcePoint" />
            <mxPoint x="140" y="320" as="targetPoint" />
            <Array as="points">
              <mxPoint x="260" y="280" />
            </Array>
          </mxGeometry>
        </mxCell>
        <mxCell id="zVjeA3QN7Vq7NyugFrP3-19" value="&lt;font style=&quot;font-size: 12px;&quot;&gt;* Allows switching back to a &lt;br&gt;previous state if a state &lt;br&gt;requires it (like the attack state)&lt;br&gt;&lt;/font&gt;" style="text;html=1;align=center;verticalAlign=middle;resizable=0;points=[];autosize=1;strokeColor=none;fillColor=none;" parent="1" vertex="1">
          <mxGeometry x="160" y="195" width="190" height="60" as="geometry" />
        </mxCell>
        <mxCell id="zVjeA3QN7Vq7NyugFrP3-21" value="with (sub-state)" style="text;html=1;strokeColor=none;fillColor=none;align=center;verticalAlign=middle;whiteSpace=wrap;rounded=0;" parent="1" vertex="1">
          <mxGeometry x="150" y="152.5" width="100" height="30" as="geometry" />
        </mxCell>
        <mxCell id="h7owL6n9Ca8O2vr561a9-1" value="&lt;font style=&quot;font-size: 18px;&quot;&gt;Grounded&lt;/font&gt;" style="ellipse;whiteSpace=wrap;html=1;" vertex="1" parent="1">
          <mxGeometry x="100" y="622.5" width="120" height="80" as="geometry" />
        </mxCell>
        <mxCell id="h7owL6n9Ca8O2vr561a9-2" value="&lt;font style=&quot;font-size: 18px;&quot;&gt;Not-Grounded&lt;/font&gt;" style="ellipse;whiteSpace=wrap;html=1;" vertex="1" parent="1">
          <mxGeometry x="660" y="622.5" width="120" height="80" as="geometry" />
        </mxCell>
        <mxCell id="h7owL6n9Ca8O2vr561a9-3" value="" style="endArrow=classic;startArrow=classic;html=1;rounded=0;exitX=1;exitY=0.5;exitDx=0;exitDy=0;entryX=0;entryY=0.5;entryDx=0;entryDy=0;" edge="1" parent="1" source="h7owL6n9Ca8O2vr561a9-1" target="h7owL6n9Ca8O2vr561a9-2">
          <mxGeometry width="50" height="50" relative="1" as="geometry">
            <mxPoint x="410" y="702.5" as="sourcePoint" />
            <mxPoint x="460" y="652.5" as="targetPoint" />
          </mxGeometry>
        </mxCell>
        <mxCell id="h7owL6n9Ca8O2vr561a9-4" value="&lt;font style=&quot;font-size: 18px;&quot;&gt;Crouch&lt;/font&gt;" style="ellipse;whiteSpace=wrap;html=1;" vertex="1" parent="1">
          <mxGeometry x="60" y="742.5" width="80" height="80" as="geometry" />
        </mxCell>
        <mxCell id="h7owL6n9Ca8O2vr561a9-5" value="&lt;font style=&quot;font-size: 18px;&quot;&gt;Stand&lt;/font&gt;" style="ellipse;whiteSpace=wrap;html=1;" vertex="1" parent="1">
          <mxGeometry x="180" y="742.5" width="80" height="80" as="geometry" />
        </mxCell>
        <mxCell id="h7owL6n9Ca8O2vr561a9-6" value="" style="endArrow=classic;startArrow=classic;html=1;rounded=0;exitX=1;exitY=0.5;exitDx=0;exitDy=0;entryX=0;entryY=0.5;entryDx=0;entryDy=0;" edge="1" parent="1" source="h7owL6n9Ca8O2vr561a9-4" target="h7owL6n9Ca8O2vr561a9-5">
          <mxGeometry width="50" height="50" relative="1" as="geometry">
            <mxPoint x="210" y="672.5" as="sourcePoint" />
            <mxPoint x="730" y="672.5" as="targetPoint" />
          </mxGeometry>
        </mxCell>
        <mxCell id="h7owL6n9Ca8O2vr561a9-7" value="" style="endArrow=none;dashed=1;html=1;dashPattern=1 3;strokeWidth=2;rounded=0;exitX=0.5;exitY=1;exitDx=0;exitDy=0;entryX=0.5;entryY=0;entryDx=0;entryDy=0;" edge="1" parent="1" source="h7owL6n9Ca8O2vr561a9-1" target="h7owL6n9Ca8O2vr561a9-4">
          <mxGeometry width="50" height="50" relative="1" as="geometry">
            <mxPoint x="-354" y="1012.5" as="sourcePoint" />
            <mxPoint x="-50" y="952.5" as="targetPoint" />
          </mxGeometry>
        </mxCell>
        <mxCell id="h7owL6n9Ca8O2vr561a9-8" value="" style="endArrow=none;dashed=1;html=1;dashPattern=1 3;strokeWidth=2;rounded=0;exitX=0.5;exitY=1;exitDx=0;exitDy=0;entryX=0.5;entryY=0;entryDx=0;entryDy=0;" edge="1" parent="1" source="h7owL6n9Ca8O2vr561a9-1" target="h7owL6n9Ca8O2vr561a9-5">
          <mxGeometry width="50" height="50" relative="1" as="geometry">
            <mxPoint x="150" y="712.5" as="sourcePoint" />
            <mxPoint x="90" y="752.5" as="targetPoint" />
          </mxGeometry>
        </mxCell>
        <mxCell id="h7owL6n9Ca8O2vr561a9-9" value="&lt;font style=&quot;font-size: 18px;&quot;&gt;Jump&lt;/font&gt;" style="ellipse;whiteSpace=wrap;html=1;" vertex="1" parent="1">
          <mxGeometry x="760" y="742.5" width="80" height="80" as="geometry" />
        </mxCell>
        <mxCell id="h7owL6n9Ca8O2vr561a9-10" value="&lt;font style=&quot;font-size: 18px;&quot;&gt;Fall&lt;/font&gt;" style="ellipse;whiteSpace=wrap;html=1;" vertex="1" parent="1">
          <mxGeometry x="600" y="742.5" width="80" height="80" as="geometry" />
        </mxCell>
        <mxCell id="h7owL6n9Ca8O2vr561a9-11" value="&lt;font style=&quot;font-size: 18px;&quot;&gt;Dash&lt;/font&gt;" style="ellipse;whiteSpace=wrap;html=1;" vertex="1" parent="1">
          <mxGeometry x="600" y="902.5" width="80" height="80" as="geometry" />
        </mxCell>
        <mxCell id="h7owL6n9Ca8O2vr561a9-15" value="&lt;font style=&quot;font-size: 18px;&quot;&gt;Walk&lt;/font&gt;" style="ellipse;whiteSpace=wrap;html=1;" vertex="1" parent="1">
          <mxGeometry x="120" y="862.5" width="80" height="80" as="geometry" />
        </mxCell>
        <mxCell id="h7owL6n9Ca8O2vr561a9-16" value="&lt;font style=&quot;font-size: 18px;&quot;&gt;Idle&lt;/font&gt;" style="ellipse;whiteSpace=wrap;html=1;" vertex="1" parent="1">
          <mxGeometry y="862.5" width="80" height="80" as="geometry" />
        </mxCell>
        <mxCell id="h7owL6n9Ca8O2vr561a9-17" value="&lt;font size=&quot;3&quot;&gt;Run&lt;/font&gt;" style="ellipse;whiteSpace=wrap;html=1;" vertex="1" parent="1">
          <mxGeometry x="240" y="862.5" width="80" height="80" as="geometry" />
        </mxCell>
        <mxCell id="h7owL6n9Ca8O2vr561a9-18" value="&lt;font style=&quot;font-size: 18px;&quot;&gt;Attack&lt;/font&gt;" style="ellipse;whiteSpace=wrap;html=1;" vertex="1" parent="1">
          <mxGeometry x="410" y="500" width="80" height="80" as="geometry" />
        </mxCell>
        <mxCell id="h7owL6n9Ca8O2vr561a9-20" value="" style="endArrow=none;dashed=1;html=1;dashPattern=1 3;strokeWidth=2;rounded=0;exitX=0.5;exitY=0;exitDx=0;exitDy=0;entryX=0.5;entryY=1;entryDx=0;entryDy=0;" edge="1" parent="1" source="h7owL6n9Ca8O2vr561a9-15" target="h7owL6n9Ca8O2vr561a9-5">
          <mxGeometry width="50" height="50" relative="1" as="geometry">
            <mxPoint x="140" y="862.5" as="sourcePoint" />
            <mxPoint x="190" y="812.5" as="targetPoint" />
          </mxGeometry>
        </mxCell>
        <mxCell id="h7owL6n9Ca8O2vr561a9-21" value="" style="endArrow=none;dashed=1;html=1;dashPattern=1 3;strokeWidth=2;rounded=0;exitX=0.5;exitY=0;exitDx=0;exitDy=0;entryX=0.5;entryY=1;entryDx=0;entryDy=0;" edge="1" parent="1" source="h7owL6n9Ca8O2vr561a9-16" target="h7owL6n9Ca8O2vr561a9-4">
          <mxGeometry width="50" height="50" relative="1" as="geometry">
            <mxPoint x="90" y="862.5" as="sourcePoint" />
            <mxPoint x="80" y="822.5" as="targetPoint" />
          </mxGeometry>
        </mxCell>
        <mxCell id="h7owL6n9Ca8O2vr561a9-22" value="" style="endArrow=none;dashed=1;html=1;dashPattern=1 3;strokeWidth=2;rounded=0;exitX=0.5;exitY=0;exitDx=0;exitDy=0;entryX=0.5;entryY=1;entryDx=0;entryDy=0;" edge="1" parent="1" source="h7owL6n9Ca8O2vr561a9-15" target="h7owL6n9Ca8O2vr561a9-4">
          <mxGeometry width="50" height="50" relative="1" as="geometry">
            <mxPoint x="100" y="862.5" as="sourcePoint" />
            <mxPoint x="150" y="812.5" as="targetPoint" />
          </mxGeometry>
        </mxCell>
        <mxCell id="h7owL6n9Ca8O2vr561a9-23" value="" style="endArrow=none;dashed=1;html=1;dashPattern=1 3;strokeWidth=2;rounded=0;exitX=0.5;exitY=1;exitDx=0;exitDy=0;entryX=0.3;entryY=0.075;entryDx=0;entryDy=0;entryPerimeter=0;" edge="1" parent="1" source="h7owL6n9Ca8O2vr561a9-5" target="h7owL6n9Ca8O2vr561a9-17">
          <mxGeometry width="50" height="50" relative="1" as="geometry">
            <mxPoint x="270" y="932.5" as="sourcePoint" />
            <mxPoint x="320" y="882.5" as="targetPoint" />
          </mxGeometry>
        </mxCell>
        <mxCell id="h7owL6n9Ca8O2vr561a9-26" value="" style="endArrow=none;dashed=1;html=1;dashPattern=1 3;strokeWidth=2;rounded=0;exitX=0.5;exitY=0;exitDx=0;exitDy=0;entryX=0.5;entryY=1;entryDx=0;entryDy=0;" edge="1" parent="1" source="h7owL6n9Ca8O2vr561a9-16" target="h7owL6n9Ca8O2vr561a9-5">
          <mxGeometry width="50" height="50" relative="1" as="geometry">
            <mxPoint x="70" y="872.5" as="sourcePoint" />
            <mxPoint x="90" y="832.5" as="targetPoint" />
          </mxGeometry>
        </mxCell>
        <mxCell id="h7owL6n9Ca8O2vr561a9-29" value="" style="endArrow=none;dashed=1;html=1;dashPattern=1 3;strokeWidth=2;rounded=0;exitX=1;exitY=0;exitDx=0;exitDy=0;entryX=0;entryY=0.5;entryDx=0;entryDy=0;" edge="1" parent="1" source="h7owL6n9Ca8O2vr561a9-1" target="h7owL6n9Ca8O2vr561a9-18">
          <mxGeometry width="50" height="50" relative="1" as="geometry">
            <mxPoint x="170" y="712.5" as="sourcePoint" />
            <mxPoint x="110" y="752.5" as="targetPoint" />
          </mxGeometry>
        </mxCell>
        <mxCell id="h7owL6n9Ca8O2vr561a9-30" value="" style="endArrow=none;dashed=1;html=1;dashPattern=1 3;strokeWidth=2;rounded=0;exitX=0;exitY=0;exitDx=0;exitDy=0;entryX=1;entryY=0.5;entryDx=0;entryDy=0;" edge="1" parent="1" source="h7owL6n9Ca8O2vr561a9-2" target="h7owL6n9Ca8O2vr561a9-18">
          <mxGeometry width="50" height="50" relative="1" as="geometry">
            <mxPoint x="212" y="644.5" as="sourcePoint" />
            <mxPoint x="405" y="550.5" as="targetPoint" />
          </mxGeometry>
        </mxCell>
        <mxCell id="h7owL6n9Ca8O2vr561a9-31" value="&lt;font style=&quot;font-size: 18px;&quot;&gt;Jump2&lt;/font&gt;" style="ellipse;whiteSpace=wrap;html=1;" vertex="1" parent="1">
          <mxGeometry x="760" y="902.5" width="80" height="80" as="geometry" />
        </mxCell>
        <mxCell id="h7owL6n9Ca8O2vr561a9-32" value="" style="endArrow=classic;html=1;rounded=0;entryX=0.5;entryY=0;entryDx=0;entryDy=0;" edge="1" parent="1" source="h7owL6n9Ca8O2vr561a9-10" target="h7owL6n9Ca8O2vr561a9-11">
          <mxGeometry width="50" height="50" relative="1" as="geometry">
            <mxPoint x="640" y="872.5" as="sourcePoint" />
            <mxPoint x="640" y="893.2106781186548" as="targetPoint" />
          </mxGeometry>
        </mxCell>
        <mxCell id="h7owL6n9Ca8O2vr561a9-33" value="" style="endArrow=classic;html=1;rounded=0;entryX=0.5;entryY=0;entryDx=0;entryDy=0;exitX=0.5;exitY=1;exitDx=0;exitDy=0;" edge="1" parent="1" source="h7owL6n9Ca8O2vr561a9-9" target="h7owL6n9Ca8O2vr561a9-31">
          <mxGeometry width="50" height="50" relative="1" as="geometry">
            <mxPoint x="650" y="832.5" as="sourcePoint" />
            <mxPoint x="650" y="912.5" as="targetPoint" />
          </mxGeometry>
        </mxCell>
        <mxCell id="h7owL6n9Ca8O2vr561a9-34" value="" style="endArrow=classic;html=1;rounded=0;entryX=0.5;entryY=0;entryDx=0;entryDy=0;exitX=0.5;exitY=1;exitDx=0;exitDy=0;" edge="1" parent="1" source="h7owL6n9Ca8O2vr561a9-9" target="h7owL6n9Ca8O2vr561a9-11">
          <mxGeometry width="50" height="50" relative="1" as="geometry">
            <mxPoint x="810" y="832.5" as="sourcePoint" />
            <mxPoint x="810" y="912.5" as="targetPoint" />
          </mxGeometry>
        </mxCell>
        <mxCell id="h7owL6n9Ca8O2vr561a9-35" value="" style="endArrow=classic;html=1;rounded=0;entryX=0.5;entryY=0;entryDx=0;entryDy=0;exitX=0.5;exitY=1;exitDx=0;exitDy=0;" edge="1" parent="1" source="h7owL6n9Ca8O2vr561a9-10" target="h7owL6n9Ca8O2vr561a9-31">
          <mxGeometry width="50" height="50" relative="1" as="geometry">
            <mxPoint x="810" y="832.5" as="sourcePoint" />
            <mxPoint x="650" y="912.5" as="targetPoint" />
          </mxGeometry>
        </mxCell>
        <mxCell id="h7owL6n9Ca8O2vr561a9-36" value="" style="endArrow=classic;html=1;rounded=0;exitX=0.5;exitY=1;exitDx=0;exitDy=0;" edge="1" parent="1" source="h7owL6n9Ca8O2vr561a9-2">
          <mxGeometry width="50" height="50" relative="1" as="geometry">
            <mxPoint x="420" y="762.5" as="sourcePoint" />
            <mxPoint x="640" y="742.5" as="targetPoint" />
          </mxGeometry>
        </mxCell>
        <mxCell id="h7owL6n9Ca8O2vr561a9-38" value="" style="endArrow=classic;html=1;rounded=0;exitX=0.5;exitY=1;exitDx=0;exitDy=0;entryX=0.425;entryY=0;entryDx=0;entryDy=0;entryPerimeter=0;" edge="1" parent="1" source="h7owL6n9Ca8O2vr561a9-2" target="h7owL6n9Ca8O2vr561a9-9">
          <mxGeometry width="50" height="50" relative="1" as="geometry">
            <mxPoint x="730" y="712.5" as="sourcePoint" />
            <mxPoint x="650" y="752.5" as="targetPoint" />
          </mxGeometry>
        </mxCell>
        <mxCell id="h7owL6n9Ca8O2vr561a9-39" value="" style="endArrow=classic;html=1;rounded=0;exitX=0;exitY=0.5;exitDx=0;exitDy=0;entryX=1;entryY=0.5;entryDx=0;entryDy=0;" edge="1" parent="1" source="h7owL6n9Ca8O2vr561a9-9" target="h7owL6n9Ca8O2vr561a9-10">
          <mxGeometry width="50" height="50" relative="1" as="geometry">
            <mxPoint x="730" y="712.5" as="sourcePoint" />
            <mxPoint x="804" y="752.5" as="targetPoint" />
          </mxGeometry>
        </mxCell>
        <mxCell id="h7owL6n9Ca8O2vr561a9-42" value="" style="curved=1;endArrow=classic;html=1;rounded=0;exitX=0;exitY=0.5;exitDx=0;exitDy=0;entryX=0;entryY=1;entryDx=0;entryDy=0;" edge="1" parent="1" source="h7owL6n9Ca8O2vr561a9-11" target="h7owL6n9Ca8O2vr561a9-10">
          <mxGeometry width="50" height="50" relative="1" as="geometry">
            <mxPoint x="490.2985749985469" y="903.6942999941875" as="sourcePoint" />
            <mxPoint x="460" y="782.5" as="targetPoint" />
            <Array as="points">
              <mxPoint x="540" y="872.5" />
            </Array>
          </mxGeometry>
        </mxCell>
        <mxCell id="h7owL6n9Ca8O2vr561a9-43" value="" style="curved=1;endArrow=classic;html=1;rounded=0;exitX=0;exitY=1;exitDx=0;exitDy=0;entryX=0;entryY=0.5;entryDx=0;entryDy=0;" edge="1" parent="1" source="h7owL6n9Ca8O2vr561a9-31" target="h7owL6n9Ca8O2vr561a9-10">
          <mxGeometry width="50" height="50" relative="1" as="geometry">
            <mxPoint x="610" y="952.5" as="sourcePoint" />
            <mxPoint x="620" y="819.5" as="targetPoint" />
            <Array as="points">
              <mxPoint x="530" y="1042.5" />
              <mxPoint x="550" y="882.5" />
            </Array>
          </mxGeometry>
        </mxCell>
        <mxCell id="h7owL6n9Ca8O2vr561a9-44" value="" style="endArrow=classic;html=1;rounded=0;entryX=1;entryY=1;entryDx=0;entryDy=0;exitX=0;exitY=0;exitDx=0;exitDy=0;" edge="1" parent="1" source="h7owL6n9Ca8O2vr561a9-10" target="h7owL6n9Ca8O2vr561a9-1">
          <mxGeometry width="50" height="50" relative="1" as="geometry">
            <mxPoint x="650" y="832.5" as="sourcePoint" />
            <mxPoint x="810" y="912.5" as="targetPoint" />
          </mxGeometry>
        </mxCell>
        <mxCell id="h7owL6n9Ca8O2vr561a9-45" value="Can Dash OR Jump once in the air" style="text;html=1;align=center;verticalAlign=middle;resizable=0;points=[];autosize=1;strokeColor=none;fillColor=none;" vertex="1" parent="1">
          <mxGeometry x="615" y="1005" width="210" height="30" as="geometry" />
        </mxCell>
        <mxCell id="h7owL6n9Ca8O2vr561a9-46" value="This state will have to know context like attacked from jump/fall vs. from crouch or stand and etc..." style="text;html=1;align=center;verticalAlign=middle;resizable=0;points=[];autosize=1;strokeColor=none;fillColor=none;" vertex="1" parent="1">
          <mxGeometry x="150" y="470" width="550" height="30" as="geometry" />
        </mxCell>
      </root>
    </mxGraphModel>
  </diagram>
</mxfile>
